<svg width="164" height="40" viewBox="0 0 164 40" fill="none" xmlns="http://www.w3.org/2000/svg" role="img" aria-label="ALFA Telecom">
  <rect x="0.5" y="0.5" width="39" height="39" rx="9.5" fill="#071016" stroke="#1FE0FF" stroke-opacity="0.42"/>
  <path d="M13.7 28L19.9 11.6H23.2L29.5 28H25.9L24.7 24.6H18.3L17.1 28H13.7ZM19.2 21.8H23.8L21.5 15.2L19.2 21.8Z" fill="#1FE0FF"/>
  <path d="M53 27.5V12.4H56.3V24.6H63.1V27.5H53ZM68.1 27.5V12.4H78.2V15.2H71.4V18.7H77.4V21.5H71.4V27.5H68.1ZM83.1 27.5V12.4H93.7V15.2H86.4V18.6H92.8V21.3H86.4V24.7H93.8V27.5H83.1ZM98.5 27.5L104.2 12.4H107.5L113.2 27.5H109.7L108.6 24.4H103L101.9 27.5H98.5ZM103.9 21.7H107.7L105.8 16.3L103.9 21.7ZM119.6 27.5V15.2H115.1V12.4H127.5V15.2H122.9V27.5H119.6ZM132 27.5V12.4H142.6V15.2H135.3V18.6H141.7V21.3H135.3V24.7H142.7V27.5H132ZM147.9 27.5V12.4H151.2V24.6H158V27.5H147.9Z" fill="#F5F7FA"/>
</svg>
